<svg width="48" height="48" viewBox="0 0 48 48" fill="none" xmlns="http://www.w3.org/2000/svg">
<ellipse cx="23.9551" cy="24" rx="23.9551" ry="24" fill="#FF5555"/>
<path d="M25.9514 33H21.9589M29.9439 20C29.9439 18.4087 29.313 16.8826 28.1898 15.7574C27.0667 14.6321 25.5435 14 23.9551 14C22.3668 14 20.8435 14.6321 19.7204 15.7574C18.5973 16.8826 17.9663 18.4087 17.9663 20C17.9663 23.0902 17.1883 25.206 16.3191 26.6054C15.5859 27.7859 15.2194 28.3761 15.2328 28.5408C15.2477 28.7231 15.2862 28.7926 15.4329 28.9016C15.5653 29 16.1623 29 17.3563 29H30.5539C31.748 29 32.345 29 32.4774 28.9016C32.624 28.7926 32.6626 28.7231 32.6775 28.5408C32.6909 28.3761 32.3243 27.7859 31.5912 26.6054C30.722 25.206 29.9439 23.0902 29.9439 20Z" stroke="white" stroke-width="2" stroke-linecap="round" stroke-linejoin="round"/>
</svg>
