<svg width="23" height="25" viewBox="0 0 23 25" fill="none" xmlns="http://www.w3.org/2000/svg">
<path d="M15.9849 3.70898C17.1795 3.70898 18.3286 4.23898 19.1739 5.18998C20.0202 6.13898 20.4932 7.41898 20.4932 8.75898V16.659C20.4932 19.449 18.4711 21.709 15.9849 21.709H7.18497C4.69881 21.709 2.67764 19.449 2.67764 16.659V8.75898C2.67764 5.96898 4.68991 3.70898 7.18497 3.70898H15.9849ZM16.9924 8.90898C16.8054 8.89798 16.6272 8.96898 16.4927 9.10898L12.4762 12.709C11.9595 13.19 11.2193 13.19 10.6946 12.709L6.68614 9.10898C6.4091 8.87898 6.02607 8.90898 5.79536 9.17898C5.55485 9.44898 5.52813 9.87898 5.73211 10.179L5.84881 10.309L9.90184 13.859C10.4007 14.299 11.0055 14.539 11.6389 14.539C12.2704 14.539 12.8859 14.299 13.3839 13.859L17.4022 10.249L17.4734 10.169C17.6863 9.87898 17.6863 9.45898 17.4636 9.16898C17.3398 9.01998 17.1697 8.92898 16.9924 8.90898Z" fill="#FF5555"/>
</svg>
